ffmpeg started on 2025-06-06 at 16:10:30
Report written to "D:\Convert\FFMetrics\reports\psnr_report-6.txt"
Log level: 32
Command line:
ffmpeg -hide_banner -nostdin -i "G:\\\xc0\xed\xe8\xec\xe5\\\xce\xed\xe3\xee\xe8\xed\xe3\xe8\\!_36_\xce\xf1\xe5\xed\xfc_2024\\DreamCast\\\xcf\xe5\xf0\xe5\xf0\xee\xe6\xe4\xe5\xed\xe8\xe5 \xe2 \xe0\xf0\xe8\xf1\xf2\xee\xea\xf0\xe0\xf2\xe0 \xf1\xee \xf1\xef\xee\xf1\xee\xe1\xed\xee\xf1\xf2\xfc\xfe \xe0\xed\xe0\xeb\xe8\xe7\xe0\\\xd2\xc2-2\\DC_Tensei_Kizoku_Kantei_Skill_de_Nariagaru_S2_02_Telegram_HEVC.mkv" -i "G:\\\xc0\xed\xe8\xec\xe5\\\xce\xed\xe3\xee\xe8\xed\xe3\xe8\\!_36_\xce\xf1\xe5\xed\xfc_2024\\DreamCast\\\xcf\xe5\xf0\xe5\xf0\xee\xe6\xe4\xe5\xed\xe8\xe5 \xe2 \xe0\xf0\xe8\xf1\xf2\xee\xea\xf0\xe0\xf2\xe0 \xf1\xee \xf1\xef\xee\xf1\xee\xe1\xed\xee\xf1\xf2\xfc\xfe \xe0\xed\xe0\xeb\xe8\xe7\xe0\\\xd2\xc2-2\\DC_Tensei_Kizoku_Kantei_Skill_de_Nariagaru_S2_02_Telegram.mp4" -lavfi "[0:v]settb=AVTB,setpts=PTS-STARTPTS,format=pix_fmts=yuv420p10,fps=24000/1001,scale=1920:1080:flags=bicubic[main];[1:v]settb=AVTB,setpts=PTS-STARTPTS,format=pix_fmts=yuv420p,fps=24000/1001,scale=1920:1080:flags=bicubic[ref];[main][ref]psnr=eof_action=endall:stats_file='D\\:/Convert/FFMetrics/logs/psnr_logfile-6.txt'" -f null -
Input #0, matroska,webm, from 'G:\Аниме\Онгоинги\!_36_Осень_2024\DreamCast\Перерождение в аристократа со способностью анализа\ТВ-2\DC_Tensei_Kizoku_Kantei_Skill_de_Nariagaru_S2_02_Telegram_HEVC.mkv':
  Metadata:
    COMPATIBLE_BRANDS: isomiso2avc1mp41
    MAJOR_BRAND     : isom
    MINOR_VERSION   : 512
    ENCODER         : Lavf61.7.100
  Duration: 00:23:48.14, start: -0.021000, bitrate: 956 kb/s
  Stream #0:0: Video: hevc (Main 10), yuv420p10le(tv, bt709, progressive), 1920x1080 [SAR 1:1 DAR 16:9], 23.98 fps, 23.98 tbr, 1k tbn (default)
      Metadata:
        HANDLER_NAME    : VideoHandler
        VENDOR_ID       : [0][0][0][0]
        ENCODER         : Lavc61.19.100 libx265
        BPS             : 760292
        DURATION        : 00:23:46.508708333
        NUMBER_OF_FRAMES: 34202
        NUMBER_OF_BYTES : 135570501
        _STATISTICS_WRITING_APP: mkvpropedit v66.0.0 ('Josie') 64-bit
        _STATISTICS_WRITING_DATE_UTC: 2025-06-02 09:11:34
        _STATISTICS_TAGS: BPS DURATION NUMBER_OF_FRAMES NUMBER_OF_BYTES
  Stream #0:1: Audio: aac (LC), 48000 Hz, stereo, fltp (default)
      Metadata:
        HANDLER_NAME    : SoundHandler
        VENDOR_ID       : [0][0][0][0]
        ENCODER         : Lavc61.19.100 aac
        BPS             : 193012
        DURATION        : 00:23:48.138000000
        NUMBER_OF_FRAMES: 66945
        NUMBER_OF_BYTES : 34455990
        _STATISTICS_WRITING_APP: mkvpropedit v66.0.0 ('Josie') 64-bit
        _STATISTICS_WRITING_DATE_UTC: 2025-06-02 09:11:34
        _STATISTICS_TAGS: BPS DURATION NUMBER_OF_FRAMES NUMBER_OF_BYTES
Input #1, mov,mp4,m4a,3gp,3g2,mj2, from 'G:\Аниме\Онгоинги\!_36_Осень_2024\DreamCast\Перерождение в аристократа со способностью анализа\ТВ-2\DC_Tensei_Kizoku_Kantei_Skill_de_Nariagaru_S2_02_Telegram.mp4':
  Metadata:
    major_brand     : isom
    minor_version   : 512
    compatible_brands: isomiso2avc1mp41
    encoder         : Lavf61.1.100
  Duration: 00:23:48.08, start: 0.000000, bitrate: 3466 kb/s
  Stream #1:0[0x1](und): Video: h264 (High) (avc1 / 0x31637661), yuv420p(tv, bt709, progressive), 1920x1080 [SAR 1:1 DAR 16:9], 3321 kb/s, 23.98 fps, 23.98 tbr, 24k tbn (default)
      Metadata:
        handler_name    : VideoHandler
        vendor_id       : [0][0][0][0]
        encoder         : Lavc61.3.100 h264_qsv
  Stream #1:1[0x2](und): Audio: aac (HE-AACv2) (mp4a / 0x6134706D), 48000 Hz, stereo, fltp, 144 kb/s (default)
      Metadata:
        handler_name    : SoundHandler
        vendor_id       : [0][0][0][0]
Stream mapping:
  Stream #0:0 (hevc) -> settb:default
  Stream #1:0 (h264) -> settb:default
  psnr:default -> Stream #0:0 (wrapped_avframe)
  Stream #0:1 -> #0:1 (aac (native) -> pcm_s16le (native))
Output #0, null, to 'pipe:':
  Metadata:
    COMPATIBLE_BRANDS: isomiso2avc1mp41
    MAJOR_BRAND     : isom
    MINOR_VERSION   : 512
    encoder         : Lavf61.7.100
  Stream #0:0: Video: wrapped_avframe, yuv420p10le(tv, bt709, progressive), 1920x1080 [SAR 1:1 DAR 16:9], q=2-31, 200 kb/s, 23.98 fps, 23.98 tbn
      Metadata:
        encoder         : Lavc61.19.100 wrapped_avframe
  Stream #0:1: Audio: pcm_s16le, 48000 Hz, stereo, s16, 1536 kb/s (default)
      Metadata:
        HANDLER_NAME    : SoundHandler
        VENDOR_ID       : [0][0][0][0]
        _STATISTICS_TAGS: BPS DURATION NUMBER_OF_FRAMES NUMBER_OF_BYTES
        BPS             : 193012
        DURATION        : 00:23:48.138000000
        NUMBER_OF_FRAMES: 66945
        NUMBER_OF_BYTES : 34455990
        _STATISTICS_WRITING_APP: mkvpropedit v66.0.0 ('Josie') 64-bit
        _STATISTICS_WRITING_DATE_UTC: 2025-06-02 09:11:34
        encoder         : Lavc61.19.100 pcm_s16le
frame=  166 fps=0.0 q=-0.0 size=N/A time=00:00:06.92 bitrate=N/A speed=13.3x    frame=  387 fps=377 q=-0.0 size=N/A time=00:00:16.14 bitrate=N/A speed=15.7x    frame=  600 fps=387 q=-0.0 size=N/A time=00:00:25.02 bitrate=N/A speed=16.1x    frame=  862 fps=420 q=-0.0 size=N/A time=00:00:35.95 bitrate=N/A speed=17.5x    frame= 1142 fps=443 q=-0.0 size=N/A time=00:00:47.63 bitrate=N/A speed=18.5x    frame= 1412 fps=456 q=-0.0 size=N/A time=00:00:58.89 bitrate=N/A speed=  19x    frame= 1675 fps=464 q=-0.0 size=N/A time=00:01:09.86 bitrate=N/A speed=19.3x    frame= 1928 fps=467 q=-0.0 size=N/A time=00:01:20.41 bitrate=N/A speed=19.5x    frame= 2205 fps=475 q=-0.0 size=N/A time=00:01:31.96 bitrate=N/A speed=19.8x    frame= 2475 fps=480 q=-0.0 size=N/A time=00:01:43.22 bitrate=N/A speed=  20x    frame= 2732 fps=482 q=-0.0 size=N/A time=00:01:53.94 bitrate=N/A speed=20.1x    frame= 3021 fps=488 q=-0.0 size=N/A time=00:02:06.00 bitrate=N/A speed=20.4x    frame= 3296 fps=492 q=-0.0 size=N/A time=00:02:17.47 bitrate=N/A speed=20.5x    frame= 3491 fps=483 q=-0.0 size=N/A time=00:02:25.60 bitrate=N/A speed=20.2x    frame= 3659 fps=473 q=-0.0 size=N/A time=00:02:32.61 bitrate=N/A speed=19.7x    frame= 3840 fps=466 q=-0.0 size=N/A time=00:02:40.16 bitrate=N/A speed=19.4x    frame= 4052 fps=462 q=-0.0 size=N/A time=00:02:49.00 bitrate=N/A speed=19.3x    frame= 4178 fps=450 q=-0.0 size=N/A time=00:02:54.25 bitrate=N/A speed=18.8x    frame= 4345 fps=444 q=-0.0 size=N/A time=00:03:01.22 bitrate=N/A speed=18.5x    frame= 4519 fps=438 q=-0.0 size=N/A time=00:03:08.47 bitrate=N/A speed=18.3x    frame= 4706 fps=435 q=-0.0 size=N/A time=00:03:16.27 bitrate=N/A speed=18.1x    frame= 4890 fps=431 q=-0.0 size=N/A time=00:03:23.95 bitrate=N/A speed=  18x    frame= 5053 fps=426 q=-0.0 size=N/A time=00:03:30.75 bitrate=N/A speed=17.8x    frame= 5232 fps=423 q=-0.0 size=N/A time=00:03:38.21 bitrate=N/A speed=17.6x    frame= 5417 fps=420 q=-0.0 size=N/A time=00:03:45.93 bitrate=N/A speed=17.5x    frame= 5635 fps=420 q=-0.0 size=N/A time=00:03:55.02 bitrate=N/A speed=17.5x    frame= 5873 fps=422 q=-0.0 size=N/A time=00:04:04.95 bitrate=N/A speed=17.6x    frame= 6095 fps=422 q=-0.0 size=N/A time=00:04:14.21 bitrate=N/A speed=17.6x    frame= 6290 fps=421 q=-0.0 size=N/A time=00:04:22.34 bitrate=N/A speed=17.6x    frame= 6492 fps=420 q=-0.0 size=N/A time=00:04:30.77 bitrate=N/A speed=17.5x    frame= 6736 fps=422 q=-0.0 size=N/A time=00:04:40.94 bitrate=N/A speed=17.6x    frame= 6918 fps=419 q=-0.0 size=N/A time=00:04:48.53 bitrate=N/A speed=17.5x    frame= 7181 fps=422 q=-0.0 size=N/A time=00:04:59.50 bitrate=N/A speed=17.6x    frame= 7441 fps=425 q=-0.0 size=N/A time=00:05:10.35 bitrate=N/A speed=17.7x    frame= 7707 fps=427 q=-0.0 size=N/A time=00:05:21.44 bitrate=N/A speed=17.8x    frame= 7954 fps=428 q=-0.0 size=N/A time=00:05:31.74 bitrate=N/A speed=17.9x    frame= 8160 fps=428 q=-0.0 size=N/A time=00:05:40.34 bitrate=N/A speed=17.8x    frame= 8415 fps=430 q=-0.0 size=N/A time=00:05:50.97 bitrate=N/A speed=17.9x    frame= 8660 fps=431 q=-0.0 size=N/A time=00:06:01.19 bitrate=N/A speed=  18x    frame= 8878 fps=431 q=-0.0 size=N/A time=00:06:10.28 bitrate=N/A speed=  18x    frame= 9113 fps=431 q=-0.0 size=N/A time=00:06:20.08 bitrate=N/A speed=  18x    frame= 9391 fps=434 q=-0.0 size=N/A time=00:06:31.68 bitrate=N/A speed=18.1x    frame= 9663 fps=436 q=-0.0 size=N/A time=00:06:43.02 bitrate=N/A speed=18.2x    frame= 9945 fps=438 q=-0.0 size=N/A time=00:06:54.78 bitrate=N/A speed=18.3x    frame=10213 fps=440 q=-0.0 size=N/A time=00:07:05.96 bitrate=N/A speed=18.4x    frame=10474 fps=442 q=-0.0 size=N/A time=00:07:16.85 bitrate=N/A speed=18.4x    frame=10724 fps=442 q=-0.0 size=N/A time=00:07:27.28 bitrate=N/A speed=18.5x    frame=10970 fps=443 q=-0.0 size=N/A time=00:07:37.54 bitrate=N/A speed=18.5x    frame=11255 fps=446 q=-0.0 size=N/A time=00:07:49.42 bitrate=N/A speed=18.6x    frame=11517 fps=447 q=-0.0 size=N/A time=00:08:00.35 bitrate=N/A speed=18.6x    frame=11777 fps=448 q=-0.0 size=N/A time=00:08:11.19 bitrate=N/A speed=18.7x    frame=12037 fps=449 q=-0.0 size=N/A time=00:08:22.04 bitrate=N/A speed=18.7x    frame=12283 fps=449 q=-0.0 size=N/A time=00:08:32.30 bitrate=N/A speed=18.7x    frame=12548 fps=451 q=-0.0 size=N/A time=00:08:43.35 bitrate=N/A speed=18.8x    frame=12775 fps=450 q=-0.0 size=N/A time=00:08:52.82 bitrate=N/A speed=18.8x    frame=13021 fps=451 q=-0.0 size=N/A time=00:09:03.08 bitrate=N/A speed=18.8x    frame=13247 fps=451 q=-0.0 size=N/A time=00:09:12.51 bitrate=N/A speed=18.8x    frame=13517 fps=452 q=-0.0 size=N/A time=00:09:23.77 bitrate=N/A speed=18.9x    frame=13779 fps=453 q=-0.0 size=N/A time=00:09:34.69 bitrate=N/A speed=18.9x    frame=14035 fps=454 q=-0.0 size=N/A time=00:09:45.37 bitrate=N/A speed=18.9x    frame=14292 fps=454 q=-0.0 size=N/A time=00:09:56.09 bitrate=N/A speed=  19x    frame=14552 fps=455 q=-0.0 size=N/A time=00:10:06.93 bitrate=N/A speed=  19x    frame=14820 fps=456 q=-0.0 size=N/A time=00:10:18.11 bitrate=N/A speed=  19x    frame=15057 fps=456 q=-0.0 size=N/A time=00:10:28.00 bitrate=N/A speed=  19x    frame=15287 fps=456 q=-0.0 size=N/A time=00:10:37.59 bitrate=N/A speed=  19x    frame=15543 fps=457 q=-0.0 size=N/A time=00:10:48.27 bitrate=N/A speed=19.1x    frame=15811 fps=458 q=-0.0 size=N/A time=00:10:59.45 bitrate=N/A speed=19.1x    frame=16061 fps=458 q=-0.0 size=N/A time=00:11:09.87 bitrate=N/A speed=19.1x    frame=16279 fps=458 q=-0.0 size=N/A time=00:11:18.96 bitrate=N/A speed=19.1x    frame=16532 fps=458 q=-0.0 size=N/A time=00:11:29.52 bitrate=N/A speed=19.1x    frame=16769 fps=458 q=-0.0 size=N/A time=00:11:39.40 bitrate=N/A speed=19.1x    frame=17007 fps=458 q=-0.0 size=N/A time=00:11:49.33 bitrate=N/A speed=19.1x    frame=17254 fps=458 q=-0.0 size=N/A time=00:11:59.63 bitrate=N/A speed=19.1x    frame=17501 fps=459 q=-0.0 size=N/A time=00:12:09.93 bitrate=N/A speed=19.1x    frame=17713 fps=458 q=-0.0 size=N/A time=00:12:18.77 bitrate=N/A speed=19.1x    frame=17951 fps=458 q=-0.0 size=N/A time=00:12:28.70 bitrate=N/A speed=19.1x    frame=18200 fps=458 q=-0.0 size=N/A time=00:12:39.09 bitrate=N/A speed=19.1x    frame=18474 fps=459 q=-0.0 size=N/A time=00:12:50.51 bitrate=N/A speed=19.2x    frame=18722 fps=460 q=-0.0 size=N/A time=00:13:00.86 bitrate=N/A speed=19.2x    frame=18932 fps=459 q=-0.0 size=N/A time=00:13:09.62 bitrate=N/A speed=19.1x    frame=19178 fps=459 q=-0.0 size=N/A time=00:13:19.88 bitrate=N/A speed=19.2x    frame=19455 fps=460 q=-0.0 size=N/A time=00:13:31.43 bitrate=N/A speed=19.2x    frame=19692 fps=460 q=-0.0 size=N/A time=00:13:41.32 bitrate=N/A speed=19.2x    frame=19963 fps=461 q=-0.0 size=N/A time=00:13:52.62 bitrate=N/A speed=19.2x    frame=20213 fps=461 q=-0.0 size=N/A time=00:14:03.05 bitrate=N/A speed=19.2x    frame=20456 fps=461 q=-0.0 size=N/A time=00:14:13.18 bitrate=N/A speed=19.2x    frame=20723 fps=462 q=-0.0 size=N/A time=00:14:24.32 bitrate=N/A speed=19.3x    frame=20969 fps=462 q=-0.0 size=N/A time=00:14:34.58 bitrate=N/A speed=19.3x    frame=21205 fps=462 q=-0.0 size=N/A time=00:14:44.42 bitrate=N/A speed=19.3x    frame=21438 fps=462 q=-0.0 size=N/A time=00:14:54.14 bitrate=N/A speed=19.3x    frame=21670 fps=462 q=-0.0 size=N/A time=00:15:03.81 bitrate=N/A speed=19.3x    frame=21909 fps=462 q=-0.0 size=N/A time=00:15:13.78 bitrate=N/A speed=19.3x    frame=22165 fps=462 q=-0.0 size=N/A time=00:15:24.46 bitrate=N/A speed=19.3x    frame=22373 fps=462 q=-0.0 size=N/A time=00:15:33.14 bitrate=N/A speed=19.3x    frame=22633 fps=462 q=-0.0 size=N/A time=00:15:43.98 bitrate=N/A speed=19.3x    frame=22840 fps=461 q=-0.0 size=N/A time=00:15:52.61 bitrate=N/A speed=19.2x    frame=23090 fps=462 q=-0.0 size=N/A time=00:16:03.04 bitrate=N/A speed=19.3x    frame=23335 fps=462 q=-0.0 size=N/A time=00:16:13.26 bitrate=N/A speed=19.3x    frame=23596 fps=462 q=-0.0 size=N/A time=00:16:24.14 bitrate=N/A speed=19.3x    frame=23801 fps=462 q=-0.0 size=N/A time=00:16:32.70 bitrate=N/A speed=19.3x    frame=24063 fps=462 q=-0.0 size=N/A time=00:16:43.62 bitrate=N/A speed=19.3x    frame=24331 fps=463 q=-0.0 size=N/A time=00:16:54.80 bitrate=N/A speed=19.3x    frame=24605 fps=463 q=-0.0 size=N/A time=00:17:06.23 bitrate=N/A speed=19.3x    frame=24863 fps=464 q=-0.0 size=N/A time=00:17:16.99 bitrate=N/A speed=19.3x    frame=25124 fps=464 q=-0.0 size=N/A time=00:17:27.88 bitrate=N/A speed=19.4x    frame=25379 fps=464 q=-0.0 size=N/A time=00:17:38.51 bitrate=N/A speed=19.4x    frame=25646 fps=465 q=-0.0 size=N/A time=00:17:49.65 bitrate=N/A speed=19.4x    frame=25919 fps=465 q=-0.0 size=N/A time=00:18:01.03 bitrate=N/A speed=19.4x    frame=26176 fps=466 q=-0.0 size=N/A time=00:18:11.75 bitrate=N/A speed=19.4x    frame=26421 fps=466 q=-0.0 size=N/A time=00:18:21.97 bitrate=N/A speed=19.4x    frame=26688 fps=466 q=-0.0 size=N/A time=00:18:33.11 bitrate=N/A speed=19.4x    frame=26964 fps=467 q=-0.0 size=N/A time=00:18:44.62 bitrate=N/A speed=19.5x    frame=27258 fps=468 q=-0.0 size=N/A time=00:18:56.88 bitrate=N/A speed=19.5x    frame=27527 fps=468 q=-0.0 size=N/A time=00:19:08.10 bitrate=N/A speed=19.5x    frame=27789 fps=469 q=-0.0 size=N/A time=00:19:19.03 bitrate=N/A speed=19.5x    frame=28031 fps=469 q=-0.0 size=N/A time=00:19:29.12 bitrate=N/A speed=19.5x    frame=28289 fps=469 q=-0.0 size=N/A time=00:19:39.88 bitrate=N/A speed=19.6x    frame=28561 fps=469 q=-0.0 size=N/A time=00:19:51.23 bitrate=N/A speed=19.6x    frame=28824 fps=470 q=-0.0 size=N/A time=00:20:02.20 bitrate=N/A speed=19.6x    frame=29111 fps=471 q=-0.0 size=N/A time=00:20:14.17 bitrate=N/A speed=19.6x    frame=29400 fps=471 q=-0.0 size=N/A time=00:20:26.22 bitrate=N/A speed=19.7x    frame=29642 fps=471 q=-0.0 size=N/A time=00:20:36.31 bitrate=N/A speed=19.7x    frame=29918 fps=472 q=-0.0 size=N/A time=00:20:47.82 bitrate=N/A speed=19.7x    frame=30176 fps=472 q=-0.0 size=N/A time=00:20:58.59 bitrate=N/A speed=19.7x    frame=30465 fps=473 q=-0.0 size=N/A time=00:21:10.64 bitrate=N/A speed=19.7x    frame=30725 fps=473 q=-0.0 size=N/A time=00:21:21.48 bitrate=N/A speed=19.7x    frame=30998 fps=473 q=-0.0 size=N/A time=00:21:32.87 bitrate=N/A speed=19.7x    frame=31247 fps=473 q=-0.0 size=N/A time=00:21:43.26 bitrate=N/A speed=19.7x    frame=31478 fps=473 q=-0.0 size=N/A time=00:21:52.89 bitrate=N/A speed=19.7x    frame=31703 fps=473 q=-0.0 size=N/A time=00:22:02.27 bitrate=N/A speed=19.7x    frame=31966 fps=473 q=-0.0 size=N/A time=00:22:13.24 bitrate=N/A speed=19.7x    frame=32240 fps=474 q=-0.0 size=N/A time=00:22:24.67 bitrate=N/A speed=19.8x    frame=32510 fps=474 q=-0.0 size=N/A time=00:22:35.93 bitrate=N/A speed=19.8x    frame=32770 fps=474 q=-0.0 size=N/A time=00:22:46.78 bitrate=N/A speed=19.8x    frame=33026 fps=474 q=-0.0 size=N/A time=00:22:57.45 bitrate=N/A speed=19.8x    frame=33261 fps=474 q=-0.0 size=N/A time=00:23:07.26 bitrate=N/A speed=19.8x    frame=33525 fps=475 q=-0.0 size=N/A time=00:23:18.27 bitrate=N/A speed=19.8x    frame=33778 fps=475 q=-0.0 size=N/A time=00:23:28.82 bitrate=N/A speed=19.8x    frame=34006 fps=474 q=-0.0 size=N/A time=00:23:38.33 bitrate=N/A speed=19.8x    [Parsed_psnr_10 @ 00000158b9505ac0] PSNR y:47.993792 u:50.750194 v:50.387292 average:48.694153 min:36.580073 max:inf
[out#0/null @ 00000158b6a25380] video:14696KiB audio:267780KiB subtitle:0KiB other streams:0KiB global headers:0KiB muxing overhead: unknown
frame=34202 fps=475 q=-0.0 Lsize=N/A time=00:23:46.50 bitrate=N/A speed=19.8x    
